<svg xmlns="http://www.w3.org/2000/svg" viewBox="0 0 1200 720" width="1200" height="720">
<style>
text{font-family:ui-sans-serif,system-ui,-apple-system,BlinkMacSystemFont,'Segoe UI',sans-serif}
.title{font-size:38px;font-weight:780;fill:#0f172a}.subtitle{font-size:20px;fill:#475569}
.tick{font-size:15px;fill:#64748b}.label{font-size:20px;font-weight:700;fill:#0f172a}.value{font-size:18px;font-weight:700;fill:#0f172a}
</style>
<rect width="1200" height="720" rx="32" fill="#f8fafc"/>
<path d="M72 610 C240 520 330 660 520 575 S850 460 1128 535" fill="none" stroke="#ccfbf1" stroke-width="80" stroke-linecap="round" opacity=".8"/>
<text x="74" y="72" class="title">Tier 1 Echo Throughput</text>
<text x="76" y="106" class="subtitle">Concurrency 64, typed JSON echo</text>
<line x1="110" y1="560" x2="1080" y2="560" stroke="#334155" stroke-width="2"/>
<line x1="110" y1="560.0" x2="1080" y2="560.0" stroke="#cbd5e1" stroke-width="1"/>
<text x="92" y="565.0" text-anchor="end" class="tick">0 rps</text>
<line x1="110" y1="461.2" x2="1080" y2="461.2" stroke="#cbd5e1" stroke-width="1"/>
<text x="92" y="466.2" text-anchor="end" class="tick">5000 rps</text>
<line x1="110" y1="362.5" x2="1080" y2="362.5" stroke="#cbd5e1" stroke-width="1"/>
<text x="92" y="367.5" text-anchor="end" class="tick">10000 rps</text>
<line x1="110" y1="263.8" x2="1080" y2="263.8" stroke="#cbd5e1" stroke-width="1"/>
<text x="92" y="268.8" text-anchor="end" class="tick">15000 rps</text>
<line x1="110" y1="165.0" x2="1080" y2="165.0" stroke="#cbd5e1" stroke-width="1"/>
<text x="92" y="170.0" text-anchor="end" class="tick">20000 rps</text>
<rect x="134.0" y="379.5" width="133.7" height="180.5" rx="14" fill="#0f766e"/>
<text x="200.8" y="365.5" text-anchor="middle" class="value">9137</text>
<text x="200.8" y="615" text-anchor="middle" class="label">vyuh</text>
<rect x="291.7" y="380.5" width="133.7" height="179.5" rx="14" fill="#2563eb"/>
<text x="358.5" y="366.5" text-anchor="middle" class="value">9087</text>
<text x="358.5" y="615" text-anchor="middle" class="label">axum</text>
<rect x="449.3" y="381.3" width="133.7" height="178.7" rx="14" fill="#d97706"/>
<text x="516.2" y="367.3" text-anchor="middle" class="value">9050</text>
<text x="516.2" y="615" text-anchor="middle" class="label">rocket</text>
<rect x="607.0" y="373.5" width="133.7" height="186.5" rx="14" fill="#dc2626"/>
<text x="673.8" y="359.5" text-anchor="middle" class="value">9445</text>
<text x="673.8" y="615" text-anchor="middle" class="label">actix</text>
<rect x="764.7" y="486.2" width="133.7" height="73.8" rx="14" fill="#059669"/>
<text x="831.5" y="472.2" text-anchor="middle" class="value">3734</text>
<text x="831.5" y="615" text-anchor="middle" class="label">fastapi</text>
<rect x="922.3" y="534.6" width="133.7" height="25.4" rx="14" fill="#4f46e5"/>
<text x="989.2" y="520.6" text-anchor="middle" class="value">1286</text>
<text x="989.2" y="615" text-anchor="middle" class="label">drf</text>
</svg>
