<svg xmlns="http://www.w3.org/2000/svg" viewBox="0 0 1200 720" width="1200" height="720">
<style>
text{font-family:ui-sans-serif,system-ui,-apple-system,BlinkMacSystemFont,'Segoe UI',sans-serif}
.title{font-size:38px;font-weight:780;fill:#0f172a}.subtitle{font-size:20px;fill:#475569}
.tick{font-size:15px;fill:#64748b}.label{font-size:20px;font-weight:700;fill:#0f172a}.value{font-size:18px;font-weight:700;fill:#0f172a}
</style>
<rect width="1200" height="720" rx="32" fill="#f8fafc"/>
<path d="M72 610 C240 520 330 660 520 575 S850 460 1128 535" fill="none" stroke="#ccfbf1" stroke-width="80" stroke-linecap="round" opacity=".8"/>
<text x="74" y="72" class="title">Tier 2 Write Throughput</text>
<text x="76" y="106" class="subtitle">Postgres event writes at concurrency 256</text>
<line x1="110" y1="560" x2="1080" y2="560" stroke="#334155" stroke-width="2"/>
<line x1="110" y1="560.0" x2="1080" y2="560.0" stroke="#cbd5e1" stroke-width="1"/>
<text x="92" y="565.0" text-anchor="end" class="tick">0 rps</text>
<line x1="110" y1="461.2" x2="1080" y2="461.2" stroke="#cbd5e1" stroke-width="1"/>
<text x="92" y="466.2" text-anchor="end" class="tick">2500 rps</text>
<line x1="110" y1="362.5" x2="1080" y2="362.5" stroke="#cbd5e1" stroke-width="1"/>
<text x="92" y="367.5" text-anchor="end" class="tick">5000 rps</text>
<line x1="110" y1="263.8" x2="1080" y2="263.8" stroke="#cbd5e1" stroke-width="1"/>
<text x="92" y="268.8" text-anchor="end" class="tick">7500 rps</text>
<line x1="110" y1="165.0" x2="1080" y2="165.0" stroke="#cbd5e1" stroke-width="1"/>
<text x="92" y="170.0" text-anchor="end" class="tick">10000 rps</text>
<rect x="134.0" y="229.5" width="133.7" height="330.5" rx="14" fill="#0f766e"/>
<text x="200.8" y="215.5" text-anchor="middle" class="value">8368</text>
<text x="200.8" y="615" text-anchor="middle" class="label">vyuh</text>
<rect x="291.7" y="242.9" width="133.7" height="317.1" rx="14" fill="#2563eb"/>
<text x="358.5" y="228.9" text-anchor="middle" class="value">8029</text>
<text x="358.5" y="615" text-anchor="middle" class="label">axum</text>
<rect x="449.3" y="234.6" width="133.7" height="325.4" rx="14" fill="#d97706"/>
<text x="516.2" y="220.6" text-anchor="middle" class="value">8238</text>
<text x="516.2" y="615" text-anchor="middle" class="label">rocket</text>
<rect x="607.0" y="236.3" width="133.7" height="323.7" rx="14" fill="#dc2626"/>
<text x="673.8" y="222.3" text-anchor="middle" class="value">8196</text>
<text x="673.8" y="615" text-anchor="middle" class="label">actix</text>
<rect x="764.7" y="397.9" width="133.7" height="162.1" rx="14" fill="#059669"/>
<text x="831.5" y="383.9" text-anchor="middle" class="value">4105</text>
<text x="831.5" y="615" text-anchor="middle" class="label">fastapi</text>
<rect x="922.3" y="547.8" width="133.7" height="12.2" rx="14" fill="#4f46e5"/>
<text x="989.2" y="533.8" text-anchor="middle" class="value">310</text>
<text x="989.2" y="615" text-anchor="middle" class="label">drf</text>
</svg>
